<?xml version="1.0" encoding="utf-8"?>
<!-- Generator: Adobe Illustrator 24.1.2, SVG Export Plug-In . SVG Version: 6.00 Build 0)  -->
<svg version="1.1" id="Layer_2_1_" xmlns="http://www.w3.org/2000/svg" xmlns:xlink="http://www.w3.org/1999/xlink" x="0px" y="0px"
	 viewBox="0 0 379 322" style="enable-background:new 0 0 379 322;" xml:space="preserve">
<style type="text/css">
	.st0{fill:url(#SVGID_1_);}
	.st1{fill:none;stroke:#0C0202;stroke-miterlimit:10;}
	.st2{fill:none;stroke:#0A0101;stroke-miterlimit:10;}
	.st3{fill:url(#SVGID_2_);}
	.st4{fill:url(#SVGID_3_);stroke:#0C0202;stroke-miterlimit:10;}
	.st5{fill:url(#SVGID_4_);}
	.st6{fill:none;stroke:#000200;stroke-miterlimit:10;}
</style>
<linearGradient id="SVGID_1_" gradientUnits="userSpaceOnUse" x1="-486.5711" y1="175.5581" x2="-485.5711" y2="175.5581" gradientTransform="matrix(-191.1479 -191.1702 191.1702 -191.1479 -126322.8125 -59216.1172)">
	<stop  offset="0" style="stop-color:#EDCA1B"/>
	<stop  offset="1" style="stop-color:#FF9E15"/>
</linearGradient>
<ellipse class="st0" cx="147.6" cy="146.1" rx="139.8" ry="137.7"/>
<ellipse class="st1" cx="147.6" cy="146.1" rx="139.8" ry="137.7"/>
<ellipse class="st2" cx="147.6" cy="146.1" rx="139.8" ry="137.7"/>
<radialGradient id="SVGID_2_" cx="-481.1446" cy="171.8965" r="0.9999" gradientTransform="matrix(142.5372 0 0 -140.3715 68728.6094 24275.4648)" gradientUnits="userSpaceOnUse">
	<stop  offset="0" style="stop-color:#FFFFFF"/>
	<stop  offset="0" style="stop-color:#616161"/>
	<stop  offset="0.1627" style="stop-color:#4D4D4D"/>
	<stop  offset="0.5332" style="stop-color:#232323"/>
	<stop  offset="0.825" style="stop-color:#090909"/>
	<stop  offset="1" style="stop-color:#000000"/>
</radialGradient>
<path class="st3" d="M147.6,8.4L147.6,8.4c77.2,0,139.8,61.7,139.8,137.7s-62.6,137.7-139.8,137.7S7.8,222.1,7.8,146.1
	S70.4,8.4,147.6,8.4C70.4,8.4,7.8,70.1,7.8,146.1s62.6,137.7,139.8,137.7s139.8-61.7,139.8-137.7C287.4,70.1,224.8,8.4,147.6,8.4z"
	/>
<radialGradient id="SVGID_3_" cx="231.9682" cy="126.3104" r="163.7187" fx="105.3347" fy="68.5448" gradientTransform="matrix(1 0 0 -1 0 348)" gradientUnits="userSpaceOnUse">
	<stop  offset="0" style="stop-color:#B1B1B1"/>
	<stop  offset="0.2422" style="stop-color:#A0A0A0"/>
	<stop  offset="0.7168" style="stop-color:#767676"/>
	<stop  offset="1" style="stop-color:#595959"/>
</radialGradient>
<path class="st4" d="M101.6,220.5c-7.6,11.8-5.5,23.7-3.8,28.5c1.1,4.3,3.8,14.5,13.7,20.4c1.6,1.1,10.4,6.5,21.3,4.8
	c7.6-1.1,10.4-4.3,14.7-2.2c3.3,1.6,3.3,4.3,8.2,8.1c3.3,2.7,6,4.3,6.6,4.3c4.9,2.7,9.8,3.2,13.1,3.8c7.6,1.1,13.1,0.5,15.3,0
	c4.9-0.5,8.7-2.2,10.4-2.7c4.4-1.6,9.3-4.8,10.4-5.9c0,0,0,0,0.5-0.5c1.6-0.5,3.3,4.3,7.6,7c4.4,2.7,9.3,2.7,9.3,3.8
	c0,0.5-0.5,1.1-1.6,1.6c-2.2,2.2-3.3,3.2-3.3,3.2c-7.6,6.5-16.9,15.1-16.4,16.1c0.5,0.5,1.1,0.5,31.7-17.2c0,0,2.2,0,2.7,0
	c1.6,0,4.9,0.5,6.6,0.5c4.4,0,7.6-0.5,9.8-1.1c1.1,0,4.9-1.1,9.8-2.7c1.6-0.5,4.9-1.6,8.7-3.8c2.2-1.1,4.4-2.7,7.1-5.4
	c1.6-1.6,4.4-4.8,4.4-4.8c2.2,1.1,4.9,2.7,8.7,3.8c7.1,2.2,13.1,1.6,16.9,1.6c2.2,0,7.6-0.5,14.2-2.2c3.8-1.1,8.7-2.7,14.7-5.9
	c7.1-4.3,10.9-9.1,13.7-12.4c2.2-2.7,6-7.5,8.7-15.1c0.5-2.2,3.3-9.1,2.2-18.8c0-2.7-1.1-8.6-3.8-15.1c-3.3-7.5-7.6-12.4-8.7-14.5
	c-3.8-3.8-7.1-6.5-8.7-8.1c-1.6-1.1-7.1-4.8-14.7-7.5c-4.9-1.6-9.3-2.2-11.5-2.7c-6.6-1.1-11.5-1.1-15.8-1.1c-4.4,0-7.1,0-10.4,0.5
	c-10.4,1.6-12,3.2-15.3,1.6c-3.8-1.6-2.2-4.8-7.6-9.1c-3.8-3.2-8.7-4.8-10.4-5.4c-2.2-0.5-6.6-1.6-10.9-1.1c-4.4,1.1-6,1.6-7.6,1.6
	c0,0,0,0-0.5,0h-0.5c-0.5,0-1.6-3.2-3.3-8.1c-1.1-3.2-3.3-5.9-8.7-11.3c-2.7-2.7-8.2-8.1-16.9-11.3c-13.1-5.4-25.7-2.7-29.5-1.6
	c-3.8,1.1-22.4,5.4-30.6,21c-4.4,8.1-4.4,15.6-4.4,18.3c0,11.8,4.9,16.1,1.6,21c-3.3,5.4-10.9,2.2-24,7
	C120.7,204.9,108.7,209.2,101.6,220.5z"/>
<linearGradient id="SVGID_4_" gradientUnits="userSpaceOnUse" x1="-463.1772" y1="187.205" x2="-462.2413" y2="187.5572" gradientTransform="matrix(26.7739 13.0573 -13.0573 26.7739 15073.2197 1302.1653)">
	<stop  offset="0" style="stop-color:#FFFFFF"/>
	<stop  offset="0.4566" style="stop-color:#B4D6FF"/>
	<stop  offset="0.8226" style="stop-color:#7FB9FF"/>
	<stop  offset="1" style="stop-color:#6AAEFF"/>
</linearGradient>
<path class="st5" d="M202.1,313c-0.5-0.5,2.7-2.7,11-10.3c4.4-4.3,7.7-8.2,10.5-10.3c0.5-0.5,2.2-2.2,4.9-4.3c0,0,0,0,0.5-0.5
	c0,0,0-0.5-7.2-3.2l-0.5-3.2c0,0,15.4-8.7,15.9-8.7c0,0,1.1,0,1.1-0.5s-1.1-0.5-3.3-1.1c-3.3-0.5-6.1-1.6-6.1-1.6c0-1.1,0-2,0-3
	c44.8-22.6,44.8-22.6,44.8-22.6c0.5,0,1.1-1.1,1.6-0.5c1.1,0.5-19.7,21.5-20.8,22.1c0,0.5,0.5,0.5,1.6,1.1c1.6,1.1,3.3,2.2,3.3,2.2
	s0.5,0.5,0.5,1.1c0,0.5,0,0.6,0,0.6s0.5,1.1,0,2.2c0,0.5-0.5,0.5-0.5,0.5c-0.5,0-0.5,0.5-1.1,0.5c0,0-3.2,1.6-3.7,2.2
	c0,0,0,0-0.5,0.5c-0.5,0-0.5,0.5-2.6,2.2c0,0-1.6,1.1-3.2,2.2c-1.1,0.5-1.1,0.5-1.1,0.5s0,0.5,3.7,1.6v3.9c0,0-11,6.6-13.8,8.2
	C225.8,301.1,203.2,314.1,202.1,313z"/>
<path class="st6" d="M202.6,313c-0.5-0.5,2.7-2.7,11-10.3c4.4-4.3,7.7-8.2,10.5-10.3c0.5-0.5,2.2-2.2,4.9-4.3c0,0,0,0,0.5-0.5
	c0,0,0-0.5-7.2-3.2l-0.5-3.2c0,0,15.4-8.7,15.9-8.7c0,0,1.1,0,1.1-0.5s-1.1-0.5-3.3-1.1c-3.3-0.5-6.1-1.6-6.1-1.6c0-1.1,0-2,0-3
	c44.8-22.6,44.8-22.6,44.8-22.6c0.5,0,1.1-1.1,1.6-0.5c1.1,0.5-19.7,21.5-20.8,22.1c0,0.5,0.5,0.5,1.6,1.1c1.6,1.1,3.3,2.2,3.3,2.2
	s0.5,0.5,0.5,1.1c0,0.5,0,0.6,0,0.6s0.5,1.1,0,2.2c0,0.5-0.5,0.5-0.5,0.5c-0.5,0-0.5,0.5-1.1,0.5c0,0-3.2,1.6-3.7,2.2
	c0,0,0,0-0.5,0.5c-0.5,0-0.5,0.5-2.6,2.2c0,0-1.6,1.1-3.2,2.2c-1.1,0.5-1.1,0.5-1.1,0.5s0,0.5,3.7,1.6v3.9c0,0-11,6.6-13.8,8.2
	C226.3,301.1,203.7,314.1,202.6,313z"/>
</svg>
